<?xml version="1.0" standalone="no"?>
<!DOCTYPE svg PUBLIC "-//W3C//DTD SVG 20010904//EN"
 "http://www.w3.org/TR/2001/REC-SVG-20010904/DTD/svg10.dtd">
<svg version="1.0" xmlns="http://www.w3.org/2000/svg"
 width="576.000000pt" height="85.000000pt" viewBox="0 0 576.000000 85.000000"
 preserveAspectRatio="xMidYMid meet">

<g transform="translate(0.000000,85.000000) scale(0.100000,-0.100000)"
fill="#000000" stroke="none">
<path d="M395 639 c-74 -9 -99 -19 -86 -32 17 -17 14 -22 -25 -52 -30 -23 -39
-26 -60 -16 -21 9 -25 7 -40 -22 -22 -41 -21 -107 2 -145 15 -26 20 -29 40
-20 17 8 29 6 55 -13 19 -13 36 -25 39 -27 2 -2 -1 -11 -7 -21 -10 -16 -7 -20
29 -30 80 -24 258 -7 229 22 -17 17 -14 22 25 52 30 23 39 26 60 16 21 -9 25
-7 40 20 20 40 20 108 0 148 -15 27 -19 29 -40 20 -21 -10 -30 -7 -60 16 -38
29 -43 39 -25 51 33 20 -94 44 -176 33z"/>
</g>
</svg>
