<svg width="357" height="124" viewBox="0 0 357 124" fill="none" xmlns="http://www.w3.org/2000/svg">
<rect opacity="0.4" x="-0.25" y="0.25" width="327.357" height="102.254" rx="51.1268" transform="matrix(-1 0 0 1 341.924 10.3867)" stroke="url(#paint0_linear_897_1137)" stroke-width="0.5"/>
<rect opacity="0.6" x="-0.25" y="0.25" width="312.786" height="91.9783" rx="45.9891" transform="matrix(-1 0 0 1 334.64 15.5259)" stroke="url(#paint1_linear_897_1137)" stroke-width="0.5"/>
<rect opacity="0.8" x="-0.25" y="0.25" width="298.214" height="81.703" rx="40.8515" transform="matrix(-1 0 0 1 327.359 20.6649)" stroke="url(#paint2_linear_897_1137)" stroke-width="0.5"/>
<rect x="-0.25" y="0.25" width="283.643" height="71.4275" rx="35.7137" transform="matrix(-1 0 0 1 320.075 25.7997)" fill="#122F3D" fill-opacity="0.48" stroke="url(#paint3_linear_897_1137)" stroke-width="0.5"/>
<rect opacity="0.2" x="-0.25" y="0.25" width="341.929" height="112.529" rx="56.2644" transform="matrix(-1 0 0 1 349.216 5.25208)" stroke="url(#paint4_linear_897_1137)" stroke-width="0.5"/>
<rect opacity="0.1" x="-0.25" y="0.25" width="356.5" height="122.804" rx="61.4022" transform="matrix(-1 0 0 1 356.5 0.112793)" stroke="url(#paint5_linear_897_1137)" stroke-width="0.5"/>
<rect x="46" y="33.1128" width="264.378" height="56.2351" rx="28.1175" fill="url(#paint6_linear_897_1137)"/>
<circle cx="92.7407" cy="61.2302" r="22.2749" fill="#CD65B5"/>
<g clip-path="url(#clip0_897_1137)">
<path d="M102.086 54.086C102.603 54.1684 103.04 54.1951 103.453 54.3095C105.093 54.7618 106.233 56.2769 106.241 58.0422C106.255 61.8322 106.256 65.6222 106.241 69.4108C106.232 71.5712 104.626 73.2873 102.521 73.2966C96.0103 73.3259 89.4986 73.3245 82.9882 73.2979C80.847 73.2886 79.2422 71.5739 79.2383 69.3723C79.2279 63.7212 79.2279 58.0702 79.2383 52.4191C79.2422 50.2255 80.8639 48.5161 82.9986 48.5054C88.1041 48.4815 93.2083 48.4802 98.3138 48.5081C100.463 48.5201 102.048 50.2082 102.084 52.4151C102.094 52.9659 102.086 53.5166 102.086 54.086ZM81.3145 56.112C81.3145 56.1945 81.3145 56.4126 81.3145 56.6308C81.3145 60.7733 81.3145 64.9158 81.3145 69.0583C81.3145 70.519 81.9442 71.1761 83.3556 71.1761C89.6051 71.1788 95.8532 71.1788 102.103 71.1761C103.531 71.1761 104.162 70.5296 104.163 69.0783C104.165 65.5783 104.163 62.0783 104.163 58.5783C104.163 56.9035 103.567 56.2849 101.948 56.2849C96.1752 56.2849 90.4023 56.2929 84.6281 56.2769C83.5387 56.2743 82.4493 56.1705 81.3145 56.112ZM100.004 54.1498C100.004 53.6257 100.004 53.2067 100.004 52.7889C100.003 51.2777 99.3889 50.6339 97.9333 50.6326C95.2936 50.6299 92.6538 50.6312 90.0141 50.6326C87.6769 50.6326 85.3397 50.6232 83.0038 50.6432C82.1351 50.6512 81.4677 51.2764 81.334 52.1185C81.2054 52.922 81.6573 53.7521 82.4247 54.0234C82.722 54.1285 83.0596 54.1458 83.379 54.1458C88.6806 54.1525 93.9809 54.1512 99.2824 54.1512C99.4954 54.1512 99.7083 54.1512 100.006 54.1512L100.004 54.1498Z" fill="white"/>
<path d="M99.6486 62.3376C100.434 62.3309 101.059 62.9641 101.05 63.7596C101.041 64.5179 100.422 65.1525 99.6823 65.1618C98.9072 65.1724 98.2878 64.5325 98.293 63.7277C98.2995 62.9402 98.8799 62.3456 99.6473 62.3376H99.6486Z" fill="white"/>
</g>
<path d="M145.812 58.7766H143.313C143.267 58.4533 143.174 58.1661 143.033 57.915C142.892 57.6602 142.712 57.4434 142.491 57.2646C142.27 57.0858 142.016 56.9489 141.727 56.8538C141.441 56.7587 141.131 56.7112 140.797 56.7112C140.192 56.7112 139.665 56.8614 139.216 57.1619C138.767 57.4586 138.419 57.8922 138.172 58.4628C137.925 59.0296 137.801 59.718 137.801 60.5282C137.801 61.3613 137.925 62.0612 138.172 62.6279C138.423 63.1947 138.773 63.6226 139.222 63.9117C139.671 64.2008 140.19 64.3453 140.779 64.3453C141.11 64.3453 141.417 64.3016 141.698 64.2141C141.983 64.1266 142.236 63.9992 142.457 63.8318C142.677 63.6607 142.86 63.4534 143.005 63.2099C143.153 62.9665 143.256 62.6888 143.313 62.3769L145.812 62.3883C145.747 62.9246 145.585 63.4419 145.327 63.9402C145.072 64.4347 144.728 64.8779 144.294 65.2697C143.864 65.6576 143.351 65.9657 142.754 66.194C142.16 66.4184 141.489 66.5306 140.739 66.5306C139.697 66.5306 138.765 66.2948 137.944 65.8231C137.126 65.3514 136.479 64.6687 136.004 63.7748C135.532 62.8809 135.296 61.7987 135.296 60.5282C135.296 59.254 135.536 58.1699 136.015 57.276C136.494 56.3821 137.145 55.7013 137.966 55.2334C138.788 54.7617 139.712 54.5259 140.739 54.5259C141.417 54.5259 142.044 54.621 142.622 54.8112C143.204 55.0014 143.72 55.279 144.169 55.6442C144.617 56.0056 144.983 56.4487 145.264 56.9736C145.549 57.4985 145.732 58.0995 145.812 58.7766ZM158.321 60.5282C158.321 61.8025 158.08 62.8866 157.597 63.7805C157.118 64.6744 156.463 65.3571 155.634 65.8288C154.809 66.2967 153.881 66.5306 152.85 66.5306C151.811 66.5306 150.879 66.2948 150.054 65.8231C149.229 65.3514 148.576 64.6687 148.097 63.7748C147.618 62.8809 147.378 61.7987 147.378 60.5282C147.378 59.254 147.618 58.1699 148.097 57.276C148.576 56.3821 149.229 55.7013 150.054 55.2334C150.879 54.7617 151.811 54.5259 152.85 54.5259C153.881 54.5259 154.809 54.7617 155.634 55.2334C156.463 55.7013 157.118 56.3821 157.597 57.276C158.08 58.1699 158.321 59.254 158.321 60.5282ZM155.817 60.5282C155.817 59.7028 155.693 59.0067 155.446 58.44C155.202 57.8732 154.858 57.4434 154.413 57.1505C153.968 56.8576 153.447 56.7112 152.85 56.7112C152.253 56.7112 151.731 56.8576 151.286 57.1505C150.841 57.4434 150.495 57.8732 150.248 58.44C150.005 59.0067 149.883 59.7028 149.883 60.5282C149.883 61.3537 150.005 62.0498 150.248 62.6165C150.495 63.1833 150.841 63.6131 151.286 63.906C151.731 64.1989 152.253 64.3453 152.85 64.3453C153.447 64.3453 153.968 64.1989 154.413 63.906C154.858 63.6131 155.202 63.1833 155.446 62.6165C155.693 62.0498 155.817 61.3537 155.817 60.5282ZM169.925 54.6856V66.3708H167.791L162.708 59.0162H162.622V66.3708H160.152V54.6856H162.32L167.364 62.0345H167.466V54.6856H169.925ZM181.74 54.6856V66.3708H179.606L174.523 59.0162H174.437V66.3708H171.967V54.6856H174.135L179.179 62.0345H179.281V54.6856H181.74ZM183.782 66.3708V54.6856H191.655V56.7226H186.252V59.5069H191.25V61.5439H186.252V64.3339H191.678V66.3708H183.782ZM203.93 58.7766H201.431C201.385 58.4533 201.292 58.1661 201.151 57.915C201.01 57.6602 200.83 57.4434 200.609 57.2646C200.388 57.0858 200.134 56.9489 199.844 56.8538C199.559 56.7587 199.249 56.7112 198.914 56.7112C198.31 56.7112 197.783 56.8614 197.334 57.1619C196.885 57.4586 196.537 57.8922 196.29 58.4628C196.043 59.0296 195.919 59.718 195.919 60.5282C195.919 61.3613 196.043 62.0612 196.29 62.6279C196.541 63.1947 196.891 63.6226 197.34 63.9117C197.789 64.2008 198.308 64.3453 198.897 64.3453C199.228 64.3453 199.534 64.3016 199.816 64.2141C200.101 64.1266 200.354 63.9992 200.575 63.8318C200.795 63.6607 200.978 63.4534 201.123 63.2099C201.271 62.9665 201.374 62.6888 201.431 62.3769L203.93 62.3883C203.865 62.9246 203.703 63.4419 203.445 63.9402C203.19 64.4347 202.846 64.8779 202.412 65.2697C201.982 65.6576 201.469 65.9657 200.871 66.194C200.278 66.4184 199.607 66.5306 198.857 66.5306C197.815 66.5306 196.883 66.2948 196.062 65.8231C195.244 65.3514 194.597 64.6687 194.122 63.7748C193.65 62.8809 193.414 61.7987 193.414 60.5282C193.414 59.254 193.654 58.1699 194.133 57.276C194.612 56.3821 195.263 55.7013 196.084 55.2334C196.906 54.7617 197.83 54.5259 198.857 54.5259C199.534 54.5259 200.162 54.621 200.74 54.8112C201.322 55.0014 201.838 55.279 202.286 55.6442C202.735 56.0056 203.1 56.4487 203.382 56.9736C203.667 57.4985 203.85 58.0995 203.93 58.7766ZM205.256 56.7226V54.6856H214.853V56.7226H211.276V66.3708H208.834V56.7226H205.256ZM222.783 66.3708L219.439 54.6856H222.138L224.072 62.8048H224.169L226.303 54.6856H228.614L230.742 62.8219H230.845L232.779 54.6856H235.478L232.134 66.3708H229.726L227.501 58.731H227.41L225.19 66.3708H222.783ZM237.637 66.3708H234.99L239.024 54.6856H242.208L246.236 66.3708H243.588L240.661 57.3559H240.57L237.637 66.3708ZM237.472 61.7778H243.725V63.7063H237.472V61.7778ZM247.642 66.3708V54.6856H250.113V64.3339H255.122V66.3708H247.642ZM256.758 66.3708V54.6856H259.229V64.3339H264.239V66.3708H256.758ZM265.875 66.3708V54.6856H273.749V56.7226H268.345V59.5069H273.343V61.5439H268.345V64.3339H273.771V66.3708H265.875ZM275.268 56.7226V54.6856H284.865V56.7226H281.287V66.3708H278.845V56.7226H275.268Z" fill="white"/>
<defs>
<linearGradient id="paint0_linear_897_1137" x1="327.857" y1="-0.00010906" x2="-2.85088" y2="10.1848" gradientUnits="userSpaceOnUse">
<stop stop-color="#3EB6FF"/>
<stop offset="1" stop-color="#D660B1"/>
</linearGradient>
<linearGradient id="paint1_linear_897_1137" x1="313.286" y1="-9.81536e-05" x2="-2.68607" y2="10.3317" gradientUnits="userSpaceOnUse">
<stop stop-color="#3EB6FF"/>
<stop offset="1" stop-color="#D660B1"/>
</linearGradient>
<linearGradient id="paint2_linear_897_1137" x1="298.714" y1="-8.72477e-05" x2="-2.51267" y2="10.5654" gradientUnits="userSpaceOnUse">
<stop stop-color="#3EB6FF"/>
<stop offset="1" stop-color="#D660B1"/>
</linearGradient>
<linearGradient id="paint3_linear_897_1137" x1="284.143" y1="-7.63416e-05" x2="-2.32611" y2="10.923" gradientUnits="userSpaceOnUse">
<stop stop-color="#3EB6FF"/>
<stop offset="1" stop-color="#D660B1"/>
</linearGradient>
<linearGradient id="paint4_linear_897_1137" x1="342.429" y1="-0.000119965" x2="-3.00981" y2="10.1012" gradientUnits="userSpaceOnUse">
<stop stop-color="#3EB6FF"/>
<stop offset="1" stop-color="#D660B1"/>
</linearGradient>
<linearGradient id="paint5_linear_897_1137" x1="357" y1="-0.000130871" x2="-3.16456" y2="10.065" gradientUnits="userSpaceOnUse">
<stop stop-color="#3EB6FF"/>
<stop offset="1" stop-color="#D660B1"/>
</linearGradient>
<linearGradient id="paint6_linear_897_1137" x1="46" y1="61.2303" x2="310.378" y2="61.2303" gradientUnits="userSpaceOnUse">
<stop stop-color="#33B3FF"/>
<stop offset="1" stop-color="#DF5CAD"/>
</linearGradient>
<clipPath id="clip0_897_1137">
<rect width="27.022" height="24.8311" fill="white" transform="translate(79.2295 48.488)"/>
</clipPath>
</defs>
</svg>
