<svg width="22" height="22" viewBox="0 0 22 22" fill="none" xmlns="http://www.w3.org/2000/svg">
<g clip-path="url(#clip0_3737_10684)">
<path d="M18.1289 5.05444C16.902 4.46612 15.5863 4.03268 14.2107 3.78443C14.1856 3.77964 14.1606 3.79161 14.1477 3.81556C13.9785 4.13006 13.7911 4.54036 13.6598 4.86285C12.1802 4.63136 10.7082 4.63136 9.25895 4.86285C9.12767 4.53319 8.93344 4.13006 8.76347 3.81556C8.75056 3.79241 8.72554 3.78044 8.70049 3.78443C7.3256 4.03189 6.00991 4.46533 4.78222 5.05444C4.77159 5.05922 4.76248 5.06721 4.75643 5.07758C2.26083 8.97381 1.57718 12.7743 1.91256 16.5276C1.91408 16.546 1.92394 16.5635 1.9376 16.5747C3.58412 17.8383 5.17906 18.6054 6.74439 19.1139C6.76944 19.1219 6.79598 19.1123 6.81193 19.0908C7.1822 18.5624 7.51227 18.0052 7.79528 17.4192C7.81198 17.3849 7.79603 17.3442 7.7619 17.3306C7.23835 17.1231 6.73983 16.8701 6.26029 16.5827C6.22236 16.5596 6.21932 16.5029 6.25422 16.4757C6.35513 16.3967 6.45607 16.3145 6.55243 16.2315C6.56986 16.2163 6.59416 16.2131 6.61465 16.2227C9.76504 17.7258 13.1757 17.7258 16.2889 16.2227C16.3094 16.2123 16.3337 16.2155 16.3519 16.2307C16.4483 16.3137 16.5492 16.3967 16.6509 16.4757C16.6858 16.5029 16.6835 16.5596 16.6456 16.5827C16.166 16.8756 15.6675 17.1231 15.1432 17.3299C15.1091 17.3434 15.0939 17.3849 15.1106 17.4192C15.3996 18.0044 15.7297 18.5615 16.0932 19.09C16.1083 19.1123 16.1357 19.1219 16.1607 19.1139C17.7336 18.6054 19.3285 17.8383 20.9751 16.5747C20.9895 16.5635 20.9986 16.5468 21.0001 16.5284C21.4015 12.1891 20.3278 8.41984 18.154 5.07838C18.1487 5.06721 18.1396 5.05922 18.1289 5.05444ZM8.26573 14.2422C7.31725 14.2422 6.53573 13.3322 6.53573 12.2147C6.53573 11.0971 7.3021 10.1872 8.26573 10.1872C9.23694 10.1872 10.0109 11.1051 9.99571 12.2147C9.99571 13.3322 9.22935 14.2422 8.26573 14.2422ZM14.6621 14.2422C13.7137 14.2422 12.9322 13.3322 12.9322 12.2147C12.9322 11.0971 13.6985 10.1872 14.6621 10.1872C15.6334 10.1872 16.4073 11.1051 16.3921 12.2147C16.3921 13.3322 15.6334 14.2422 14.6621 14.2422Z" fill="#F0F0F0"/>
</g>
<defs>
<clipPath id="clip0_3737_10684">
<rect width="19.25" height="15.5833" fill="white" transform="translate(1.83301 3.66675)"/>
</clipPath>
</defs>
</svg>
