<svg width="22" height="22" viewBox="0 0 22 22" fill="none" xmlns="http://www.w3.org/2000/svg">
<g clip-path="url(#clip0_3737_10675)">
<path d="M8.34258 21.7168V14.4018H6.07475V11.0403H8.34258V9.59201C8.34258 5.84743 10.0366 4.11218 13.7124 4.11218C14.08 4.11218 14.5878 4.15068 15.0581 4.20659C15.4103 4.24284 15.7597 4.30255 16.104 4.38534V7.43326C15.905 7.4147 15.7053 7.40369 15.5054 7.40026C15.2815 7.39445 15.0575 7.3917 14.8335 7.39201C14.1854 7.39201 13.6794 7.48001 13.2981 7.67526C13.0417 7.80388 12.8262 8.0013 12.6757 8.24543C12.4392 8.63043 12.3328 9.15751 12.3328 9.85143V11.0403H15.9253L15.5714 12.9681L15.3083 14.4018H12.3328V21.9597C17.7797 21.3015 22 16.6641 22 11.0403C22 4.96559 17.0748 0.0403442 11 0.0403442C4.92525 0.0403442 0 4.96559 0 11.0403C0 16.1993 3.55117 20.5278 8.34258 21.7168Z" fill="#F0F0F0"/>
</g>
<defs>
<clipPath id="clip0_3737_10675">
<rect width="22" height="22" fill="white"/>
</clipPath>
</defs>
</svg>
