<svg width="22" height="22" viewBox="0 0 22 22" fill="none" xmlns="http://www.w3.org/2000/svg">
<g clip-path="url(#clip0_3737_10695)">
<path d="M12.4117 11C12.4166 12.6516 11.7658 14.2376 10.6022 15.4098C9.43865 16.582 7.85745 17.2444 6.20586 17.2517C4.55427 17.2444 2.97307 16.582 1.80951 15.4098C0.645955 14.2376 -0.00484654 12.6516 2.71776e-05 11C-0.00484654 9.34842 0.645955 7.76239 1.80951 6.59024C2.97307 5.41809 4.55427 4.75563 6.20586 4.74835C7.85745 4.75563 9.43865 5.41809 10.6022 6.59024C11.7658 7.76239 12.4166 9.34842 12.4117 11ZM19.2134 11C19.2134 14.245 17.8292 16.885 16.115 16.885C14.4009 16.885 13.0075 14.245 13.0075 11C13.0075 7.75502 14.4009 5.11502 16.115 5.11502C17.8292 5.11502 19.2134 7.75502 19.2134 11ZM22 11C22 13.9059 21.5142 16.2709 20.9092 16.2709C20.3042 16.2709 19.8184 13.9059 19.8184 11C19.8184 8.09419 20.3042 5.72919 20.9092 5.72919C21.5142 5.72919 22 8.09419 22 11Z" fill="#F0F0F0"/>
</g>
<defs>
<clipPath id="clip0_3737_10695">
<rect width="22" height="22" fill="white"/>
</clipPath>
</defs>
</svg>
