<svg width="22" height="22" viewBox="0 0 22 22" fill="none" xmlns="http://www.w3.org/2000/svg">
<path d="M20.0538 6.27452C19.8359 5.46456 19.1973 4.82608 18.3875 4.60799C16.908 4.20319 10.99 4.20319 10.99 4.20319C10.99 4.20319 5.07222 4.20319 3.59275 4.59264C2.79849 4.81051 2.14432 5.46468 1.92645 6.27452C1.53711 7.75387 1.53711 10.8219 1.53711 10.8219C1.53711 10.8219 1.53711 13.9053 1.92645 15.3692C2.14455 16.179 2.78291 16.8175 3.59286 17.0356C5.0878 17.4405 10.9902 17.4405 10.9902 17.4405C10.9902 17.4405 16.908 17.4405 18.3875 17.0511C19.1974 16.8331 19.8359 16.1946 20.054 15.3848C20.4432 13.9053 20.4432 10.8374 20.4432 10.8374C20.4432 10.8374 20.4588 7.75387 20.0538 6.27452ZM9.10584 13.6562V7.98754L14.027 10.8219L9.10584 13.6562Z" fill="#F0F0F0"/>
</svg>
